<svg width="96" height="96" viewBox="0 0 96 96" fill="none" xmlns="http://www.w3.org/2000/svg">
<g clip-path="url(#clip0_2_17)">
<path fill-rule="evenodd" clip-rule="evenodd" d="M96.0001 23.6794C96.0001 10.61 85.3944 -0.000915527 72.3219 -0.000915527H23.68C10.6128 -0.000915527 0.00183105 10.61 0.00183105 23.6794V72.3191C0.00183105 85.3884 10.6128 95.9989 23.68 95.9989H72.3219C85.3944 95.9989 96.0001 85.3884 96.0001 72.3191V23.6794Z" fill="white"/>
<path d="M52.8781 25.2653C51.0125 25.2653 49.1395 25.4194 47.3036 25.7276C41.6418 26.6706 38.1486 30.0145 37.2036 35.4031C36.6081 38.8619 36.0234 42.5161 35.5597 45.4531C35.4312 46.2818 35.3616 46.6698 35.2866 47.1031C35.2244 47.4519 35.1568 47.8291 35.05 48.4942L32.6605 63.4637C32.3408 65.4091 32.0535 67.1936 31.7906 68.9125C31.7047 69.4641 31.6716 70.0211 31.99 70.3901C32.307 70.7592 32.8958 70.8072 33.4318 70.8099C34.6181 70.8146 39.2044 70.8146 40.3555 70.8099C41.7169 70.8018 42.1049 70.4699 42.33 69.0944C43.0728 64.5702 43.8495 59.767 44.8458 53.5232C45.0858 52.0165 45.3291 50.5105 45.5691 49.0066L45.8016 47.5438C46.1896 45.0746 46.4755 43.3496 46.8196 41.2933L47.2475 38.6896C47.6936 35.9675 48.8393 34.9009 51.6317 34.615C51.971 34.5764 52.3461 34.5555 52.7727 34.5555L54.1327 34.5548L56.8763 34.5555L57.2785 34.5325L60.1574 34.5386C60.7063 34.5386 61.2572 34.5352 61.8047 34.5251C62.603 34.5142 63.3675 34.3493 63.5784 33.2333C63.8717 31.5685 64.1353 29.8948 64.4301 27.8116C64.5463 27.0903 64.186 26.5408 63.4425 26.3062C62.9146 26.1467 62.3846 25.9858 61.8466 25.9344C59.7552 25.7222 57.7037 25.5485 55.7766 25.389C54.8174 25.3065 53.8407 25.2653 52.8781 25.2653Z" fill="#1F5DA6"/>
<path fill-rule="evenodd" clip-rule="evenodd" d="M23.8946 88.0631L24.1513 88.0777C25.6674 88.1588 33.9418 88.5708 47.7654 88.5708C63.1072 88.5708 72.1044 88.0485 72.1044 88.0485C72.5878 88.0193 73.0664 87.969 73.5417 87.896C73.5433 87.896 73.5433 87.896 73.5449 87.896C73.738 87.8651 73.9035 87.7256 73.9651 87.5391C74.0267 87.3509 73.9781 87.1432 73.8402 87.0005C73.8386 87.0005 73.8386 87.0005 73.837 86.9988L67.987 81.1489C67.9854 81.1489 67.9854 81.1473 67.9838 81.1473C67.8816 81.0483 67.7437 80.9932 67.5961 80.9964C67.5961 80.9964 67.5944 80.9964 67.5928 80.9964C63.5955 81.1424 56.7998 81.3274 47.7654 81.3274C32.6928 81.3274 24.3391 80.8326 24.3317 80.8326C24.3294 80.8326 24.3271 80.8326 24.3248 80.8326C19.5721 80.5487 15.4578 76.4314 15.1801 71.6781L15.166 71.4202C15.0834 69.8644 14.6722 61.4059 14.6722 47.8356C14.6722 38.8936 14.8464 32.2893 14.9883 28.391V28.3894C14.9929 28.2434 14.9392 28.1038 14.8375 27.9984C14.8367 27.9984 14.8357 27.9968 14.8349 27.9968L8.98787 22.1517C8.84852 22.0106 8.63908 21.9619 8.45041 22.0236C8.45008 22.0236 8.4496 22.0236 8.4496 22.0236C8.25996 22.0852 8.12157 22.2491 8.09156 22.4454C8.01824 22.9239 7.96616 23.4057 7.93729 23.8908C7.93696 23.8973 7.42725 32.4856 7.42725 47.8356C7.42725 63.1677 7.94735 72.0853 7.94816 72.0999C8.43095 80.3897 15.6064 87.5715 23.8946 88.0631Z" fill="#1F5DA6"/>
<path fill-rule="evenodd" clip-rule="evenodd" d="M72.1027 7.94807L71.8334 7.93313C70.2371 7.84861 61.5693 7.42456 47.7654 7.42456C32.4067 7.42456 23.8945 7.93201 23.8945 7.93201H23.894C23.4083 7.96218 22.9266 8.01345 22.4477 8.08612C22.4471 8.08629 22.4466 8.08628 22.4459 8.08644C22.2508 8.11759 22.0869 8.25662 22.0258 8.44497L22.0256 8.44529C21.9643 8.63494 22.0146 8.84389 22.1555 8.98389C22.1549 8.98324 27.9991 14.8288 27.9991 14.8288C27.9995 14.8291 27.9998 14.8294 28.0001 14.8296C28.1052 14.9336 28.2488 14.9894 28.3932 14.9835C32.272 14.8424 38.8429 14.668 47.7654 14.668C62.8298 14.668 71.6728 15.1793 71.6842 15.18C76.4375 15.4556 80.5532 19.5673 80.8354 24.3191C80.8354 24.3402 81.3318 32.7744 81.3318 47.8339C81.3318 56.8538 81.1501 63.6154 81.0025 67.5948C80.9977 67.7392 81.0528 67.8852 81.1583 67.9891C81.1566 67.9874 87.0049 73.8357 87.0049 73.8357C87.1477 73.9769 87.3586 74.0272 87.5468 73.9623C87.735 73.9006 87.8712 73.7384 87.9037 73.5421V73.5405C87.9751 73.0668 88.0254 72.585 88.0546 72.0999C88.0546 72.0999 88.5769 63.1806 88.5769 47.8339C88.5769 32.5018 88.0675 23.9135 88.0659 23.8908C87.576 15.6036 80.3942 8.42745 72.1027 7.94807Z" fill="#1F5DA6"/>
</g>
<defs>
<clipPath id="clip0_2_17">
<rect width="96" height="96" fill="white"/>
</clipPath>
</defs>
</svg>
